# xmcd
#
# Track frame offsets: 
#        150
#        21117
#        33062
#        45217
#        58320
#        73650
#        90005
#        102262
#        122642
#        136135
#        145725
#        158580
#        173550
#        185860
#        197757
#        216545
#        227947
#        240605
#        253130
#        267242
#        281575
#        296252
#        309500
#
# Disc length: 4327 seconds
#
# Revision: 7
# Processed by: cddbd v1.5.2PL0 Copyright (c) Steve Scherf et al.
# Submitted via: ExactAudioCopyFreeDBPlugin 1.0
#
DISCID=4610e517
DTITLE=Elvis Presley - The Memphis Record
DYEAR=1969
DGENRE=Rock and Roll
TTITLE0=Stranger in My Own Home Town
TTITLE1=Power of My Love
TTITLE2=Only the Strong Survive
TTITLE3=Any Day Now
TTITLE4=Suspicious Minds
TTITLE5=Long Black Limousine
TTITLE6=Wearin' That Loved On Look
TTITLE7=I'll Hold You in My Heart
TTITLE8=After Loving You
TTITLE9=Rubberneckin'
TTITLE10=I'm Movin' On
TTITLE11=Gentle on My Mind
TTITLE12=True Love Travels on a Gravel Road
TTITLE13=It Keeps Right On A-Hurtin'
TTITLE14=You'll Think of Me
TTITLE15=Mama Liked the Roses
TTITLE16=Don't Cry Daddy
TTITLE17=In the Ghetto
TTITLE18=The Fair Is Moving On
TTITLE19=Inherit the Wind
TTITLE20=Kentucky Rain
TTITLE21=Without Love (There Is Nothing)
TTITLE22=Who Am I?
EXTD=RCA Victor. CD 6221-2-R. Made in U.S.A.
EXTT0=
EXTT1=
EXTT2=
EXTT3=
EXTT4=
EXTT5=
EXTT6=
EXTT7=
EXTT8=
EXTT9=
EXTT10=
EXTT11=
EXTT12=
EXTT13=
EXTT14=
EXTT15=
EXTT16=
EXTT17=
EXTT18=
EXTT19=
EXTT20=
EXTT21=
EXTT22=
PLAYORDER=
